<svg id="esZGbYH5j4w1" xmlns="http://www.w3.org/2000/svg" xmlns:xlink="http://www.w3.org/1999/xlink" viewBox="0 0 16 22" shape-rendering="geometricPrecision" text-rendering="geometricPrecision"><style><![CDATA[#esZGbYH5j4w2_tr {animation: esZGbYH5j4w2_tr__tr 2000ms linear infinite normal forwards}@keyframes esZGbYH5j4w2_tr__tr { 0% {transform: translate(8.250049px,7.430328px) rotate(-0.103691deg)} 50% {transform: translate(8.250049px,7.430328px) rotate(359.679066deg)} 100% {transform: translate(8.250049px,7.430328px) rotate(359.679066deg)}} #esZGbYH5j4w7 {animation: esZGbYH5j4w7_c_o 2000ms linear infinite normal forwards}@keyframes esZGbYH5j4w7_c_o { 0% {opacity: 0} 50% {opacity: 0} 75% {opacity: 1} 100% {opacity: 1}}]]></style><g id="esZGbYH5j4w2_tr" transform="translate(8.250049,7.430328) rotate(-0.103691)"><g transform="translate(-8.250049,-7.430328)" mask="url(#esZGbYH5j4w5)"><g><path d="M4.9696,7.83711c.19849,1.65472,1.59102,2.93669,3.28015,2.93669c1.82575,0,3.30595-1.49685,3.30595-3.34331c0-1.84674-1.4802-3.3439-3.30595-3.3439-1.49575,0-2.75898,1.00554-3.16644,2.38495L1.09541,4.84166c.23138-.31146.60142-.95048.80614-1.24923.29632-.43317.48998-.6842.99669-1.2498.18006-.20133.37826-.38516.58242-.56193.33488-.29649.73441-.59751,1.26181-.880164l-.00028.00113c1.04263-.574354,2.23724-.90191,3.50756-.90191c4.05735,0,7.34605,3.326674,7.34605,7.430734c0,4.10381-3.2887,7.43041-7.34605,7.43041-4.05652,0-7.345453-3.3266-7.345453-7.43041c0-.12792.003119-.25471.009641-.38065L4.9696,7.83711Z" clip-rule="evenodd" fill="#ee3955" fill-rule="evenodd"/></g><mask id="esZGbYH5j4w5" mask-type="alpha"><path d="M15.5957,14.8611v-14.8611L0.904297,0v14.8611h14.691403Z" transform="translate(.000001 0)" clip-rule="evenodd" fill="#fff" fill-rule="evenodd"/></mask></g></g><path id="esZGbYH5j4w7" d="M0.815564,12.0003v-5.01885l4.183216.78056v7.40689c0,1.2032-.26422,2.9259-1.01314,4.1341C2.31517,22.0001,0,22.0001,0,22.0001s.7316-.7921.815564-2.2043c.107156-1.8028,0-7.7955,0-7.7955Z" opacity="0" clip-rule="evenodd" fill="#ee3955" fill-rule="evenodd"/></svg>